<?xml version="1.0" encoding="iso-8859-1"?>
<!-- Generator: Adobe Illustrator 19.0.0, SVG Export Plug-In . SVG Version: 6.00 Build 0)  -->
<svg version="1.1" id="Capa_1" xmlns="http://www.w3.org/2000/svg" xmlns:xlink="http://www.w3.org/1999/xlink" x="0px" y="0px"
	 viewBox="0 0 477.863 477.863" style="enable-background:new 0 0 477.863 477.863;" xml:space="preserve">
<g>
	<g>
		<path d="M460.796,0H273.063c-4.526,0.001-8.866,1.8-12.066,5.001l-256,256c-6.663,6.665-6.663,17.468,0,24.132L192.73,472.866
			c6.665,6.662,17.468,6.662,24.132,0l256-256c3.201-3.2,5-7.54,5.001-12.066V17.067C477.863,7.641,470.222,0,460.796,0z
			 M443.73,197.734L204.796,436.668L41.195,273.067L280.129,34.133H443.73V197.734z"/>
	</g>
</g>
<g>
	<g>
		<path d="M358.396,68.267c-28.277,0-51.2,22.923-51.2,51.2s22.923,51.2,51.2,51.2s51.2-22.923,51.2-51.2
			S386.673,68.267,358.396,68.267z M358.396,136.533c-9.426,0-17.067-7.641-17.067-17.067s7.641-17.067,17.067-17.067
			s17.067,7.641,17.067,17.067S367.822,136.533,358.396,136.533z"/>
	</g>
</g>
<g>
</g>
<g>
</g>
<g>
</g>
<g>
</g>
<g>
</g>
<g>
</g>
<g>
</g>
<g>
</g>
<g>
</g>
<g>
</g>
<g>
</g>
<g>
</g>
<g>
</g>
<g>
</g>
<g>
</g>
</svg>
